inDegrees=yes
name=ik_S53_A12_T01
DataType=double
version=3
OpenSimVersion=4.3-2021-08-27-4bc7ad9
endheader
time	pelvis_tilt	pelvis_list	pelvis_rotation	pelvis_tx	pelvis_ty	pelvis_tz	hip_flexion_r	hip_adduction_r	hip_rotation_r	knee_angle_r	knee_angle_r_beta	ankle_angle_r	subtalar_angle_r	mtp_angle_r	hip_flexion_l	hip_adduction_l	hip_rotation_l	knee_angle_l	knee_angle_l_beta	ankle_angle_l	subtalar_angle_l	mtp_angle_l	lumbar_extension	lumbar_bending	lumbar_rotation	arm_flex_r	arm_add_r	arm_rot_r	elbow_flex_r	pro_sup_r	wrist_flex_r	wrist_dev_r	arm_flex_l	arm_add_l	arm_rot_l	elbow_flex_l	pro_sup_l	wrist_flex_l	wrist_dev_l
5.379999999999973	-0.3725258435095678	0.5246865146662213	37.33414696891469	0	0.9399999999999999	0	24.48998201755646	-8.375000490927745	-7.41194249709619	26.89565763407842	0.4694177802038167	0	0	0	24.48998201755646	-8.375000490927745	-7.41194249709619	26.89565763407842	0.4694177802038167	0	0	0	0.6217184545049113	0.5401773573688666	11.55736176016681	6.331388458517654	-4.001046318260693	-9.714077077274935	3.887390278779317	123.1379391569213	0	0	54.72098623620995	-19.92055771323397	3.753650532281271	31.73633563224276	77.5797977082037	0	0
5.399999999999973	-0.3921631624333027	0.536498276965672	37.05304510942315	0	0.9399999999999999	0	24.51590007288398	-8.381629973119381	-7.418735300623399	26.92268378452891	0.4698894755133171	0	0	0	24.51590007288398	-8.381629973119381	-7.418735300623399	26.92268378452891	0.4698894755133171	0	0	0	0.6128042737796605	0.5566967354316957	11.7370990594298	6.316564115383448	-4.060737410544528	-9.57092154364344	3.986931269735026	122.8141294192009	0	0	57.70628593362939	-19.99302567206045	4.95288544891249	35.2251874640335	76.7544120962441	0	0
5.419999999999972	-0.4349078884847836	0.543983205875098	36.93254631510835	0	0.9399999999999999	0	24.51986399768596	-8.382634829275789	-7.419768289271734	26.92685077450391	0.4699622032082784	0	0	0	24.51986399768596	-8.382634829275789	-7.419768289271734	26.92685077450391	0.4699622032082784	0	0	0	0.5834889175750201	0.5875502109619751	11.6824909205336	6.325966678494486	-4.139659734390259	-9.423323868924236	4.027597307191602	122.8498083344507	0	0	57.69602259497407	-20.12248359384362	4.789727176572992	35.21116226054939	76.74313901660761	0	0
5.439999999999972	-0.4681589999615475	0.5740040059682781	36.45064932772861	0	0.9399999999999999	0	24.54480705482486	-8.388987555230358	-7.426292325349908	26.95287759133316	0.4704164568557622	0	0	0	24.54480705482486	-8.388987555230358	-7.426292325349908	26.95287759133316	0.4704164568557622	0	0	0	0.5744569683253263	0.6284930697443633	12.01326001397297	6.286394967869112	-4.21545466876944	-9.30462875644975	4.001214399097413	122.6581741227502	0	0	62.95894501310595	-19.48096037385221	7.047956164305146	35.83008824702542	75.19472239430426	0	0
5.459999999999972	-0.4912209633172899	0.5791645587544759	36.20985490618916	0	0.9399999999999999	0	24.55333133740581	-8.391158824035577	-7.428521483280432	26.96178038003341	0.4705718398311911	0	0	0	24.55333133740581	-8.391158824035577	-7.428521483280432	26.96178038003341	0.4705718398311911	0	0	0	0.5588520386014617	0.6461194946964987	12.17948302316844	6.279057198962832	-4.273176606475579	-9.267520820617699	3.957764911456078	122.661325142883	0	0	65.41830513263977	-19.06301146959958	8.059161332508609	36.03999937699317	74.67011890654562	0	0
5.479999999999971	-0.5325275981917715	0.5826280839076727	35.91933817077128	0	0.9399999999999999	0	24.56313549202091	-8.393655815852592	-7.431085572258167	26.97201301978095	0.4707504330859559	0	0	0	24.56313549202091	-8.393655815852592	-7.431085572258167	26.97201301978095	0.4707504330859559	0	0	0	0.5264556361027821	0.6748032599152429	12.29749429875567	6.307419463941814	-4.337469332154392	-9.141684831027208	3.974759813633221	122.7169470470603	0	0	67.7163985755551	-18.63864803862048	8.973418377711345	34.93846775698958	74.35439850673691	0	0
5.499999999999971	-0.5786924709742486	0.5948791004487389	35.63056768107063	0	0.9399999999999999	0	24.57101629132445	-8.39565924566898	-7.433144607740828	26.98024501041462	0.470894108426507	0	0	0	24.57101629132445	-8.39565924566898	-7.433144607740828	26.98024501041462	0.470894108426507	0	0	0	0.4955595077465624	0.7124858535560283	12.40341000264808	6.333740885964499	-4.442897031715032	-9.003836539830203	3.932351570830229	122.7225694212478	0	0	69.84680288040546	-18.25576681905301	9.789240982372389	35.06856320768001	74.35737366767819	0	0
5.51999999999997	-0.6185310973978939	0.6216251837020247	35.32467847012065	0	0.9399999999999999	0	24.57788699145049	-8.39740315743437	-7.434938236372671	26.98742676307412	0.471019453656479	0	0	0	24.57788699145049	-8.39740315743437	-7.434938236372671	26.98742676307412	0.471019453656479	0	0	0	0.4779864563360467	0.7581171840111601	12.49490479016739	6.337922900853334	-4.534257631821203	-8.8729285827408	3.955298074346858	122.8089535456192	0	0	71.84989648098259	-17.89047042504557	10.47747476215926	35.8276734911081	74.80452484734366	0	0
5.53999999999997	-0.6699221043538733	0.6171509418051244	35.02108422685675	0	0.9399999999999999	0	24.58790811266172	-8.399951726449293	-7.437557826681182	26.99787778928606	0.4712018584740896	0	0	0	24.58790811266172	-8.399951726449293	-7.437557826681182	26.99787778928606	0.4712018584740896	0	0	0	0.4328461729115186	0.785314805058366	12.57694737234799	6.419718841509671	-4.604649039241511	-8.771754979626994	3.948958710788578	122.9463391395637	0	0	73.7102197968177	-17.44902921228901	11.39275687776541	34.88145025832181	74.58594760167099	0	0
5.559999999999969	-0.7297745976923672	0.6042022359136329	34.80708667273002	0	0.9399999999999999	0	24.59476876659125	-8.401685714505581	-7.439344692363072	27.00506414723048	0.4713272840814467	0	0	0	24.59476876659125	-8.401685714505581	-7.439344692363072	27.00506414723048	0.4713272840814467	0	0	0	0.3756503194568574	0.8101986145594169	12.59963879985986	6.539593264865791	-4.717941886333464	-8.707119002869602	3.848420831196292	122.5498314457504	0	0	73.80869702105292	-17.63697014029891	11.28520887999855	36.43543698961475	75.02368489615333	0	0
5.579999999999969	-0.7644907645680309	0.6299513954006923	34.50423173973181	0	0.9399999999999999	0	24.71180492338135	-8.423085833376968	-7.464588742683717	27.1566550947798	0.4739730452324004	0	0	0	24.71180492338135	-8.423085833376968	-7.464588742683717	27.1566550947798	0.4739730452324004	0	0	0	0.3623291263682806	0.8496823284505021	12.65175859967497	6.558396116839617	-4.843316089224129	-8.576109056205613	3.857335490678672	122.4448992986434	0	0	76.89565973036149	-16.51306094693133	13.65271508917706	34.83010821002381	74.02866202720084	0	0
5.599999999999969	-0.8139579861851982	0.6548859272805583	34.20973031757975	0	0.9399999999999999	0	24.71968190504021	-8.425072796597076	-7.466639953398413	27.16485848281911	0.474116221363505	0	0	0	24.71968190504021	-8.425072796597076	-7.466639953398413	27.16485848281911	0.474116221363505	0	0	0	0.3348537536476094	0.8991913180926273	12.7193884764095	6.603966557615157	-4.955406681726307	-8.481189039927752	3.921004208673942	122.3236197119926	0	0	78.21051368968349	-15.97787207363785	14.800769134356	34.82355532671023	73.52180520572435	0	0
5.619999999999968	-0.8617896704311215	0.6886808464400719	33.84340708913438	0	0.9399999999999999	0	24.72976492489233	-8.427617306426681	-7.469266740953648	27.17534753794464	0.4742992899108686	0	0	0	24.72976492489233	-8.427617306426681	-7.469266740953648	27.17534753794464	0.4742992899108686	0	0	0	0.3144030696549553	0.9538964881432836	12.70782532645294	6.657695307637972	-5.088395196213016	-8.252932973309502	3.952832907183639	122.1652023816429	0	0	79.43185304895785	-15.6280648595213	15.84350421797336	34.70591769764466	72.96289271580957	0	0
5.639999999999968	-0.8701890865846088	0.693075791273209	33.70258434380052	0	0.9399999999999999	0	24.73587857453854	-8.42915381167356	-7.470855648075122	27.18172486116115	0.4744105951984606	0	0	0	24.73587857453854	-8.42915381167356	-7.470855648075122	27.18172486116115	0.4744105951984606	0	0	0	0.307959115228977	0.9646404162239683	12.8670952995525	6.68572212858866	-5.149336566799207	-8.432265927848761	3.992408279557109	122.0025513428466	0	0	80.57126273548315	-14.90654366973905	16.85875177692238	34.7651469216142	72.87984766580087	0	0
5.659999999999967	-0.9474571249578876	0.7441352127736096	33.29849417613835	0	0.9399999999999999	0	24.74301425888254	-8.430949999536386	-7.472712181889987	27.1891546338153	0.4745402691939501	0	0	0	24.74301425888254	-8.430949999536386	-7.472712181889987	27.1891546338153	0.4745402691939501	0	0	0	0.2729813340074601	1.048387463212233	12.7789937203884	6.781567775104715	-5.313212559400303	-8.085890781418376	4.030091977785251	121.8562672390088	0	0	81.60237490700969	-14.69297734578916	17.50133819376428	34.62735823987603	72.74542637205316	0	0
5.679999999999967	-0.9821430225122093	0.7716906762130564	33.04737377690898	0	0.9399999999999999	0	24.7518867921617	-8.43318378967831	-7.475021193567216	27.1983851351151	0.4747013718332412	0	0	0	24.7518867921617	-8.43318378967831	-7.475021193567216	27.1983851351151	0.4747013718332412	0	0	0	0.2583974023418923	1.091253156026726	12.81375622842276	6.831159896582398	-5.434132403444955	-8.124210311279484	4.037568323480014	121.8059547524006	0	0	82.64108299282704	-14.12576922609769	18.17414712509277	34.39920180499833	72.67890543485625	0	0
